<svg id="visual" viewBox="0 0 2000 1117" width="2000" height="1117" xmlns="http://www.w3.org/2000/svg" xmlns:xlink="http://www.w3.org/1999/xlink" version="1.1"><rect x="0" y="0" width="2000" height="1117" fill="#001220"></rect><path d="M0 741L20.8 728.2C41.7 715.3 83.3 689.7 125 686.3C166.7 683 208.3 702 250 702C291.7 702 333.3 683 375 666.2C416.7 649.3 458.3 634.7 500 633.2C541.7 631.7 583.3 643.3 625 643.7C666.7 644 708.3 633 750 646.3C791.7 659.7 833.3 697.3 875 712.7C916.7 728 958.3 721 1000 702.7C1041.7 684.3 1083.3 654.7 1125 645.2C1166.7 635.7 1208.3 646.3 1250 656C1291.7 665.7 1333.3 674.3 1375 665.3C1416.7 656.3 1458.3 629.7 1500 639.7C1541.7 649.7 1583.3 696.3 1625 692.7C1666.7 689 1708.3 635 1750 622.3C1791.7 609.7 1833.3 638.3 1875 649C1916.7 659.7 1958.3 652.3 1979.2 648.7L2000 645L2000 1118L1979.2 1118C1958.3 1118 1916.7 1118 1875 1118C1833.3 1118 1791.7 1118 1750 1118C1708.3 1118 1666.7 1118 1625 1118C1583.3 1118 1541.7 1118 1500 1118C1458.3 1118 1416.7 1118 1375 1118C1333.3 1118 1291.7 1118 1250 1118C1208.3 1118 1166.7 1118 1125 1118C1083.3 1118 1041.7 1118 1000 1118C958.3 1118 916.7 1118 875 1118C833.3 1118 791.7 1118 750 1118C708.3 1118 666.7 1118 625 1118C583.3 1118 541.7 1118 500 1118C458.3 1118 416.7 1118 375 1118C333.3 1118 291.7 1118 250 1118C208.3 1118 166.7 1118 125 1118C83.3 1118 41.7 1118 20.8 1118L0 1118Z" fill="#b1e7d1"></path><path d="M0 651L20.8 654.2C41.7 657.3 83.3 663.7 125 663.5C166.7 663.3 208.3 656.7 250 675.2C291.7 693.7 333.3 737.3 375 756.7C416.7 776 458.3 771 500 761.8C541.7 752.7 583.3 739.3 625 729.7C666.7 720 708.3 714 750 707.7C791.7 701.3 833.3 694.7 875 709.3C916.7 724 958.3 760 1000 777.3C1041.7 794.7 1083.3 793.3 1125 767.7C1166.7 742 1208.3 692 1250 686.2C1291.7 680.3 1333.3 718.7 1375 736.5C1416.7 754.3 1458.3 751.7 1500 747C1541.7 742.3 1583.3 735.7 1625 732.8C1666.7 730 1708.3 731 1750 727.5C1791.7 724 1833.3 716 1875 716.5C1916.7 717 1958.3 726 1979.2 730.5L2000 735L2000 1118L1979.2 1118C1958.3 1118 1916.7 1118 1875 1118C1833.3 1118 1791.7 1118 1750 1118C1708.3 1118 1666.7 1118 1625 1118C1583.3 1118 1541.7 1118 1500 1118C1458.3 1118 1416.7 1118 1375 1118C1333.3 1118 1291.7 1118 1250 1118C1208.3 1118 1166.7 1118 1125 1118C1083.3 1118 1041.7 1118 1000 1118C958.3 1118 916.7 1118 875 1118C833.3 1118 791.7 1118 750 1118C708.3 1118 666.7 1118 625 1118C583.3 1118 541.7 1118 500 1118C458.3 1118 416.7 1118 375 1118C333.3 1118 291.7 1118 250 1118C208.3 1118 166.7 1118 125 1118C83.3 1118 41.7 1118 20.8 1118L0 1118Z" fill="#a3e5cd"></path><path d="M0 703L20.8 708.5C41.7 714 83.3 725 125 731.2C166.7 737.3 208.3 738.7 250 755.3C291.7 772 333.3 804 375 801.5C416.7 799 458.3 762 500 746.5C541.7 731 583.3 737 625 753.3C666.7 769.7 708.3 796.3 750 808.2C791.7 820 833.3 817 875 798C916.7 779 958.3 744 1000 734.7C1041.7 725.3 1083.3 741.7 1125 760.5C1166.7 779.3 1208.3 800.7 1250 809.7C1291.7 818.7 1333.3 815.3 1375 807.7C1416.7 800 1458.3 788 1500 781.5C1541.7 775 1583.3 774 1625 782.8C1666.7 791.7 1708.3 810.3 1750 804.3C1791.7 798.3 1833.3 767.7 1875 763.3C1916.7 759 1958.3 781 1979.2 792L2000 803L2000 1118L1979.2 1118C1958.3 1118 1916.7 1118 1875 1118C1833.3 1118 1791.7 1118 1750 1118C1708.3 1118 1666.7 1118 1625 1118C1583.3 1118 1541.7 1118 1500 1118C1458.3 1118 1416.7 1118 1375 1118C1333.3 1118 1291.7 1118 1250 1118C1208.3 1118 1166.7 1118 1125 1118C1083.3 1118 1041.7 1118 1000 1118C958.3 1118 916.7 1118 875 1118C833.3 1118 791.7 1118 750 1118C708.3 1118 666.7 1118 625 1118C583.3 1118 541.7 1118 500 1118C458.3 1118 416.7 1118 375 1118C333.3 1118 291.7 1118 250 1118C208.3 1118 166.7 1118 125 1118C83.3 1118 41.7 1118 20.8 1118L0 1118Z" fill="#94e3c9"></path><path d="M0 877L20.8 876C41.7 875 83.3 873 125 859.5C166.7 846 208.3 821 250 811.5C291.7 802 333.3 808 375 808.5C416.7 809 458.3 804 500 805.8C541.7 807.7 583.3 816.3 625 812.3C666.7 808.3 708.3 791.7 750 784.3C791.7 777 833.3 779 875 776.3C916.7 773.7 958.3 766.3 1000 765.8C1041.7 765.3 1083.3 771.7 1125 785.3C1166.7 799 1208.3 820 1250 828.8C1291.7 837.7 1333.3 834.3 1375 827.2C1416.7 820 1458.3 809 1500 811.8C1541.7 814.7 1583.3 831.3 1625 832.2C1666.7 833 1708.3 818 1750 806.3C1791.7 794.7 1833.3 786.3 1875 785.7C1916.7 785 1958.3 792 1979.2 795.5L2000 799L2000 1118L1979.2 1118C1958.3 1118 1916.7 1118 1875 1118C1833.3 1118 1791.7 1118 1750 1118C1708.3 1118 1666.7 1118 1625 1118C1583.3 1118 1541.7 1118 1500 1118C1458.3 1118 1416.7 1118 1375 1118C1333.3 1118 1291.7 1118 1250 1118C1208.3 1118 1166.7 1118 1125 1118C1083.3 1118 1041.7 1118 1000 1118C958.3 1118 916.7 1118 875 1118C833.3 1118 791.7 1118 750 1118C708.3 1118 666.7 1118 625 1118C583.3 1118 541.7 1118 500 1118C458.3 1118 416.7 1118 375 1118C333.3 1118 291.7 1118 250 1118C208.3 1118 166.7 1118 125 1118C83.3 1118 41.7 1118 20.8 1118L0 1118Z" fill="#84e0c5"></path><path d="M0 854L20.8 859C41.7 864 83.3 874 125 869.8C166.7 865.7 208.3 847.3 250 845.7C291.7 844 333.3 859 375 862C416.7 865 458.3 856 500 860.5C541.7 865 583.3 883 625 881.7C666.7 880.3 708.3 859.7 750 859.2C791.7 858.7 833.3 878.3 875 884.7C916.7 891 958.3 884 1000 880.7C1041.7 877.3 1083.3 877.7 1125 872.7C1166.7 867.7 1208.3 857.3 1250 858C1291.7 858.7 1333.3 870.3 1375 867.5C1416.7 864.7 1458.3 847.3 1500 844.3C1541.7 841.3 1583.3 852.7 1625 864.5C1666.7 876.3 1708.3 888.7 1750 890.3C1791.7 892 1833.3 883 1875 874.2C1916.7 865.3 1958.3 856.7 1979.2 852.3L2000 848L2000 1118L1979.2 1118C1958.3 1118 1916.7 1118 1875 1118C1833.3 1118 1791.7 1118 1750 1118C1708.3 1118 1666.7 1118 1625 1118C1583.3 1118 1541.7 1118 1500 1118C1458.3 1118 1416.7 1118 1375 1118C1333.3 1118 1291.7 1118 1250 1118C1208.3 1118 1166.7 1118 1125 1118C1083.3 1118 1041.7 1118 1000 1118C958.3 1118 916.7 1118 875 1118C833.3 1118 791.7 1118 750 1118C708.3 1118 666.7 1118 625 1118C583.3 1118 541.7 1118 500 1118C458.3 1118 416.7 1118 375 1118C333.3 1118 291.7 1118 250 1118C208.3 1118 166.7 1118 125 1118C83.3 1118 41.7 1118 20.8 1118L0 1118Z" fill="#72dec3"></path><path d="M0 935L20.8 933.2C41.7 931.3 83.3 927.7 125 930.2C166.7 932.7 208.3 941.3 250 940.8C291.7 940.3 333.3 930.7 375 925.8C416.7 921 458.3 921 500 924C541.7 927 583.3 933 625 931C666.7 929 708.3 919 750 916.8C791.7 914.7 833.3 920.3 875 919.8C916.7 919.3 958.3 912.7 1000 915.3C1041.7 918 1083.3 930 1125 925.7C1166.7 921.3 1208.3 900.7 1250 895.3C1291.7 890 1333.3 900 1375 908.2C1416.7 916.3 1458.3 922.7 1500 921.7C1541.7 920.7 1583.3 912.3 1625 909.7C1666.7 907 1708.3 910 1750 906C1791.7 902 1833.3 891 1875 888C1916.7 885 1958.3 890 1979.2 892.5L2000 895L2000 1118L1979.2 1118C1958.3 1118 1916.7 1118 1875 1118C1833.3 1118 1791.7 1118 1750 1118C1708.3 1118 1666.7 1118 1625 1118C1583.3 1118 1541.7 1118 1500 1118C1458.3 1118 1416.7 1118 1375 1118C1333.3 1118 1291.7 1118 1250 1118C1208.3 1118 1166.7 1118 1125 1118C1083.3 1118 1041.7 1118 1000 1118C958.3 1118 916.7 1118 875 1118C833.3 1118 791.7 1118 750 1118C708.3 1118 666.7 1118 625 1118C583.3 1118 541.7 1118 500 1118C458.3 1118 416.7 1118 375 1118C333.3 1118 291.7 1118 250 1118C208.3 1118 166.7 1118 125 1118C83.3 1118 41.7 1118 20.8 1118L0 1118Z" fill="#5cdbc0"></path><path d="M0 958L20.8 959.3C41.7 960.7 83.3 963.3 125 964.3C166.7 965.3 208.3 964.7 250 967.5C291.7 970.3 333.3 976.7 375 976C416.7 975.3 458.3 967.7 500 969.2C541.7 970.7 583.3 981.3 625 987C666.7 992.7 708.3 993.3 750 993.2C791.7 993 833.3 992 875 989.3C916.7 986.7 958.3 982.3 1000 979.3C1041.7 976.3 1083.3 974.7 1125 970.2C1166.7 965.7 1208.3 958.3 1250 954.2C1291.7 950 1333.3 949 1375 951.8C1416.7 954.7 1458.3 961.3 1500 960.2C1541.7 959 1583.3 950 1625 945C1666.7 940 1708.3 939 1750 942.3C1791.7 945.7 1833.3 953.3 1875 953.8C1916.7 954.3 1958.3 947.7 1979.2 944.3L2000 941L2000 1118L1979.2 1118C1958.3 1118 1916.7 1118 1875 1118C1833.3 1118 1791.7 1118 1750 1118C1708.3 1118 1666.7 1118 1625 1118C1583.3 1118 1541.7 1118 1500 1118C1458.3 1118 1416.7 1118 1375 1118C1333.3 1118 1291.7 1118 1250 1118C1208.3 1118 1166.7 1118 1125 1118C1083.3 1118 1041.7 1118 1000 1118C958.3 1118 916.7 1118 875 1118C833.3 1118 791.7 1118 750 1118C708.3 1118 666.7 1118 625 1118C583.3 1118 541.7 1118 500 1118C458.3 1118 416.7 1118 375 1118C333.3 1118 291.7 1118 250 1118C208.3 1118 166.7 1118 125 1118C83.3 1118 41.7 1118 20.8 1118L0 1118Z" fill="#41d9be"></path><path d="M0 1011L20.8 1013.2C41.7 1015.3 83.3 1019.7 125 1022.8C166.7 1026 208.3 1028 250 1029.3C291.7 1030.7 333.3 1031.3 375 1026.5C416.7 1021.7 458.3 1011.3 500 1011.7C541.7 1012 583.3 1023 625 1022.7C666.7 1022.3 708.3 1010.7 750 1008C791.7 1005.3 833.3 1011.7 875 1014.5C916.7 1017.3 958.3 1016.7 1000 1013.7C1041.7 1010.7 1083.3 1005.3 1125 1005C1166.7 1004.7 1208.3 1009.3 1250 1015.3C1291.7 1021.3 1333.3 1028.7 1375 1026.5C1416.7 1024.3 1458.3 1012.7 1500 1006.8C1541.7 1001 1583.3 1001 1625 1001C1666.7 1001 1708.3 1001 1750 1005C1791.7 1009 1833.3 1017 1875 1018.5C1916.7 1020 1958.3 1015 1979.2 1012.5L2000 1010L2000 1118L1979.2 1118C1958.3 1118 1916.7 1118 1875 1118C1833.3 1118 1791.7 1118 1750 1118C1708.3 1118 1666.7 1118 1625 1118C1583.3 1118 1541.7 1118 1500 1118C1458.3 1118 1416.7 1118 1375 1118C1333.3 1118 1291.7 1118 1250 1118C1208.3 1118 1166.7 1118 1125 1118C1083.3 1118 1041.7 1118 1000 1118C958.3 1118 916.7 1118 875 1118C833.3 1118 791.7 1118 750 1118C708.3 1118 666.7 1118 625 1118C583.3 1118 541.7 1118 500 1118C458.3 1118 416.7 1118 375 1118C333.3 1118 291.7 1118 250 1118C208.3 1118 166.7 1118 125 1118C83.3 1118 41.7 1118 20.8 1118L0 1118Z" fill="#00d6bc"></path></svg>